<svg xmlns="http://www.w3.org/2000/svg" width="31" height="31" viewBox="0 0 31 31" fill="none"><g clip-path="url(#clip0_1_192)"><path d="M14.7913 14.2188C18.2508 14.2188 21.0552 11.4478 21.0552 8.02946C21.0552 4.61117 18.2508 1.84009 14.7913 1.84009C11.3318 1.84009 8.52734 4.61117 8.52734 8.02946C8.52734 11.4478 11.3318 14.2188 14.7913 14.2188Z" stroke="white" stroke-width="2" stroke-miterlimit="10" stroke-linecap="round" stroke-linejoin="round"></path><path d="M21.6422 19.7204C19.6256 18.5919 17.2878 17.9395 14.7894 17.9395C8.93588 17.9395 3.92116 21.5191 1.88672 26.5799" stroke="white" stroke-width="2" stroke-miterlimit="10" stroke-linecap="round" stroke-linejoin="round"></path><path d="M23.8564 29.2427L19.1094 30.7239L20.6084 26.0334L26.8367 19.8793C27.729 18.9976 29.1923 18.9976 30.1025 19.8793C30.9948 20.761 30.9948 22.2069 30.1025 23.1062L23.8564 29.2427Z" stroke="white" stroke-width="2" stroke-miterlimit="10" stroke-linecap="round" stroke-linejoin="round"></path></g><defs><clipPath id="clip0_1_192"><rect width="30.6526" height="30.6526" fill="white" transform="translate(0.117188 0.105713)"></rect></clipPath></defs></svg>